<?xml version="1.0" encoding="UTF-8" standalone="no"?>
<!-- Created with Inkscape (http://www.inkscape.org/) -->

<svg
   width="210mm"
   height="297mm"
   viewBox="0 0 210 297"
   version="1.1"
   id="svg1"
   xml:space="preserve"
   xmlns:inkscape="http://www.inkscape.org/namespaces/inkscape"
   xmlns:sodipodi="http://sodipodi.sourceforge.net/DTD/sodipodi-0.dtd"
   xmlns="http://www.w3.org/2000/svg"
   xmlns:svg="http://www.w3.org/2000/svg"><sodipodi:namedview
     id="namedview1"
     pagecolor="#ffffff"
     bordercolor="#000000"
     borderopacity="0.25"
     inkscape:showpageshadow="2"
     inkscape:pageopacity="0.0"
     inkscape:pagecheckerboard="0"
     inkscape:deskcolor="#d1d1d1"
     inkscape:document-units="mm" /><defs
     id="defs1" /><g
     inkscape:label="Réteg 1"
     inkscape:groupmode="layer"
     id="layer1"><path
       style="fill:hotpink"
       d="M 113.61767,235.9071 C 106.54628,230.65758 97.946184,224.16091 95.837674,222.47577 87.443284,215.76691 79.50706,206.8681 73.5933,197.53338 c -3.64746,-5.75743 -7.48975,-13.58483 -10.12732,-20.6311 -4.27712,-11.42633 -6.69212,-22.9563 -7.55149,-36.05322 -0.14654,-2.23329 -0.20133,-9.16339 -0.0914,-11.557 0.1445,-3.14552 0.46777,-6.75043 0.737,-8.21846 l 0.0476,-0.2598 0.94596,-0.14721 c 0.52027,-0.081 1.80272,-0.3176 2.84988,-0.52586 12.59394,-2.50464 25.75371,-8.32444 38.439744,-16.99965 5.406306,-3.69705 11.096066,-8.265897 14.920416,-11.981021 l 1.16598,-1.132673 1.12414,1.090339 c 4.14287,4.018306 10.12964,8.774682 16.03145,12.736695 10.03542,6.73698 20.8049,11.87068 30.893,14.72637 2.96076,0.83812 6.73832,1.68279 9.3285,2.08588 l 0.9465,0.1473 0.0929,0.53368 c 0.15855,0.91048 0.41078,3.28478 0.56972,5.36299 0.2159,2.82297 0.21632,11.77778 6.9e-4,14.81575 -0.88441,12.46042 -3.1975,23.57405 -7.17204,34.45933 -3.08761,8.45614 -7.2942,16.84919 -11.87116,23.68548 -3.79734,5.67182 -8.01786,10.78591 -13.01392,15.76921 -3.30668,3.29825 -6.00666,5.653 -10.07035,8.78273 -3.83447,2.9532 -16.78964,12.65084 -16.87564,12.63233 -0.0142,-0.003 -0.5974,-0.42983 -1.2959,-0.94837 z m 5.03767,-4.42586 c 6.18709,-4.59266 12.64481,-9.50599 14.72323,-11.20211 4.2094,-3.43513 9.17317,-8.33018 12.8483,-12.67041 3.77205,-4.4547 7.15688,-9.20317 9.86763,-13.843 1.68955,-2.89191 4.25985,-7.93289 5.7416,-11.26067 7.40856,-16.63849 10.97264,-35.7757 10.06798,-54.05965 -0.0838,-1.69456 -0.38312,-5.25244 -0.47164,-5.60695 -0.0342,-0.13713 -0.13093,-0.20259 -0.35589,-0.24094 -0.16989,-0.029 -1.16281,-0.2228 -2.2065,-0.43075 -12.25909,-2.44256 -25.30344,-8.1121 -37.72638,-16.39724 -5.39339,-3.59697 -11.04046,-8.001393 -15.3035,-11.935957 L 114.93,92.993528 v 70.631792 c 0,56.49371 0.0212,70.61501 0.10584,70.54795 0.0582,-0.0461 1.68698,-1.25753 3.6195,-2.69203 z m 0.15418,-22.27966 0.1295,-0.6508 10.06049,-13.44242 c 5.53327,-7.39333 10.06049,-13.46637 10.06049,-13.49565 0,-0.0293 -1.60972,-0.0374 -3.57716,-0.018 -3.02024,0.0297 -3.654,0.0573 -4.07061,0.17709 -1.24959,0.35938 -1.97126,0.91822 -3.18131,2.46349 -0.66461,0.84874 -2.58931,3.66753 -2.98527,4.37205 l -0.18683,0.33242 h -0.69725 -0.69725 l 0.0738,-0.27517 c 0.70422,-2.62744 2.36793,-8.89436 2.36793,-8.91962 0,-0.0186 4.6863,-0.0339 10.414,-0.0339 5.7277,0 10.414,0.0157 10.414,0.0349 0,0.0192 -0.0542,0.31826 -0.12049,0.66461 l -0.12048,0.62973 -10.06888,13.45355 -10.06888,13.45355 3.77587,0.0248 c 4.97043,0.0327 5.90222,-0.0755 6.95484,-0.80789 0.60477,-0.42076 1.68511,-1.76979 3.00037,-3.7466 0.90467,-1.35971 2.19199,-3.43937 2.26551,-3.65991 0.0134,-0.0403 0.31284,-0.062 0.66535,-0.0482 l 0.64092,0.0251 -1.28538,4.826 c -0.70696,2.6543 -1.31102,4.93077 -1.34235,5.05883 l -0.057,0.23283 h -11.24671 -11.2467 z m 1.88229,-45.7677 c 0.002,-0.0582 0.0882,-0.52245 0.1905,-1.03165 l 0.18603,-0.92582 1.10066,-0.15612 c 1.96606,-0.27887 2.76885,-0.57921 3.39206,-1.26902 0.35139,-0.38894 0.72843,-1.16839 0.87227,-1.80321 0.0528,-0.23283 1.29979,-6.88128 2.77118,-14.77433 2.89344,-15.5214 2.9274,-15.73798 2.58001,-16.45558 -0.39375,-0.81339 -1.25768,-1.32974 -2.93263,-1.75275 -0.54975,-0.13884 -1.00542,-0.26119 -1.01261,-0.27189 -0.007,-0.0107 0.0686,-0.4576 0.16844,-0.99311 l 0.18149,-0.97367 h 10.11323 c 11.16739,0 10.90076,-0.0112 13.06758,0.54841 3.03277,0.78325 4.79621,2.33446 5.44032,4.78559 0.22072,0.83993 0.2218,3.25311 0.002,4.27567 -0.88057,4.09492 -4.01031,6.9669 -9.33064,8.56217 -0.51073,0.15314 -0.93265,0.28003 -0.9376,0.28197 -0.005,0.002 -0.0319,0.12417 -0.06,0.27163 l -0.051,0.26812 0.6103,0.10213 c 0.84144,0.14081 2.1181,0.52874 3.02071,0.91788 2.06733,0.89127 3.67696,2.39455 4.49445,4.1975 0.98042,2.16226 0.85962,5.99174 -0.27693,8.77949 -1.81174,4.44385 -6.24561,6.91948 -13.31659,7.43527 -1.84034,0.13425 -20.27894,0.11726 -20.27319,-0.0187 z m 19.00985,-2.47511 c 1.22637,-0.23465 2.29524,-0.86752 3.38579,-2.00469 1.74351,-1.81807 2.69832,-4.04286 3.00715,-7.00691 0.13834,-1.32771 0.0585,-3.32103 -0.16746,-4.1805 -0.59488,-2.26272 -2.0078,-3.64948 -4.30942,-4.22962 -0.64034,-0.1614 -0.96266,-0.18559 -2.44909,-0.18382 -0.94144,0.001 -1.7377,0.028 -1.76945,0.0598 -0.0318,0.0318 -0.68226,3.40168 -1.44557,7.48873 -0.97055,5.19676 -1.37763,7.5537 -1.35391,7.83912 0.0452,0.54431 0.38686,1.0216 1.05103,1.46839 1.1635,0.78271 2.54323,1.03799 4.05093,0.74953 z m 1.63687,-20.36219 c 2.32517,-0.47384 4.16851,-1.86918 5.37082,-4.06552 0.79492,-1.45214 1.15235,-2.93382 1.21524,-5.03766 0.0666,-2.22649 -0.16375,-3.23271 -0.99056,-4.3278 -0.42514,-0.56311 -1.39196,-1.21053 -2.20562,-1.47698 -0.58196,-0.19058 -0.75953,-0.20656 -2.29589,-0.20656 -0.91584,0 -1.68589,0.0208 -1.71124,0.0461 -0.0428,0.0428 -2.84661,14.96779 -2.84661,15.15269 0,0.16227 2.55962,0.1 3.46386,-0.0843 z m -39.91286,69.84578 c 1.11222,-0.2335 1.95083,-0.51789 2.85537,-0.9683 3.03444,-1.511 5.09135,-4.16459 5.72925,-7.39123 0.64623,-3.26882 -0.0282,-5.84556 -2.03462,-7.77289 -1.04802,-1.00673 -1.80276,-1.43622 -5.4784,-3.11752 -2.09243,-0.95712 -2.830616,-1.45623 -3.532116,-2.38818 -0.89366,-1.18722 -1.10572,-2.77996 -0.58825,-4.41805 0.66941,-2.11906 2.621236,-3.44238 4.861976,-3.29636 1.23536,0.0805 2.04917,0.45893 2.9986,1.39436 1.25026,1.23182 2.083,3.2722 2.60877,6.39203 l 0.19619,1.16416 h 0.74084 c 0.69918,0 0.74323,-0.0107 0.78352,-0.1905 0.0434,-0.19378 1.73854,-10.04814 1.73854,-10.10678 0,-0.0176 -0.33254,-0.032 -0.73896,-0.032 h -0.73896 l -0.65018,0.64636 -0.65018,0.64637 -0.24069,-0.16998 c -0.6828,-0.48217 -2.60622,-1.28088 -3.82841,-1.58976 -2.26217,-0.57171 -4.95038,-0.38549 -6.995616,0.48461 -3.00214,1.27719 -5.08183,3.69518 -5.95084,6.91882 -0.19931,0.73939 -0.21865,0.95559 -0.22017,2.46158 -0.002,1.90709 0.0962,2.40536 0.74288,3.77041 0.46149,0.97422 0.7845,1.44963 1.40967,2.0748 0.88435,0.88435 1.76993,1.38666 4.93773,2.80075 2.114386,0.94385 2.729156,1.3043 3.444286,2.01943 1.48721,1.48721 1.78907,3.8827 0.755,5.99158 -1.03106,2.10276 -3.642426,3.19974 -6.112896,2.5679 -0.82759,-0.21166 -1.33622,-0.47422 -2.11035,-1.0894 -1.85634,-1.47516 -3.2013,-4.28042 -3.83394,-7.99664 l -0.054,-0.3175 h -0.74493 -0.74494 l -0.86351,5.22817 c -0.47493,2.87549 -0.88396,5.33294 -0.90896,5.461 l -0.0454,0.23283 h 0.74589 0.74589 l 0.72999,-0.72661 0.73,-0.72662 0.45701,0.29193 c 1.42687,0.91146 3.38489,1.60496 5.32535,1.88617 1.14544,0.16599 3.418976,0.0983 4.529656,-0.13489 z M 82.48808,162.54488 c 0.10145,-0.54715 0.18433,-1.02168 0.18419,-1.05449 -1.5e-4,-0.0328 -0.14314,-0.0822 -0.31777,-0.10984 -2.93788,-0.46429 -3.85219,-1.20276 -3.73183,-3.0141 0.0198,-0.29795 0.62287,-3.6945 1.34015,-7.54789 l 1.30415,-7.00617 h 6.846564 c 6.48098,0 6.84418,0.008 6.8022,0.14817 -0.0244,0.0815 -0.63583,3.34857 -1.35875,7.26017 -0.72293,3.9116 -1.39544,7.35192 -1.49448,7.64515 -0.35911,1.06325 -1.10478,1.82556 -2.08504,2.13157 -0.28942,0.0904 -1.06971,0.22422 -1.73399,0.29749 -0.66427,0.0733 -1.23211,0.16064 -1.26186,0.19416 -0.0298,0.0335 -0.11832,0.4229 -0.19681,0.86528 -0.0785,0.44239 -0.16381,0.89006 -0.189604,0.99484 l -0.0469,0.1905 h 8.879264 8.879256 l 0.18784,-1.03152 c 0.10332,-0.56734 0.17896,-1.04009 0.16809,-1.05055 -0.0109,-0.0105 -0.38117,-0.0812 -0.82289,-0.15725 -1.55138,-0.267 -2.30761,-0.57194 -2.81718,-1.13597 -0.40546,-0.44878 -0.51606,-0.88828 -0.46096,-1.8317 0.0404,-0.69213 5.32387,-29.43834 5.57098,-30.31067 0.12821,-0.45257 0.5243,-1.22765 0.78679,-1.5396 0.46402,-0.55146 1.91092,-1.06102 3.76695,-1.32664 l 0.72989,-0.10445 0.18184,-0.88532 c 0.10002,-0.48693 0.18574,-0.97105 0.1905,-1.07582 l 0.009,-0.1905 H 102.956 94.114344 l -0.0904,0.4445 c -0.27526,1.3534 -0.31946,1.68713 -0.2274,1.71664 0.0518,0.0166 0.47513,0.13033 0.9408,0.25274 1.67238,0.43963 2.66595,1.08625 2.9074,1.89213 0.20332,0.67863 0.10797,1.38264 -1.00112,7.3911 -0.60466,3.27574 -1.11973,6.04161 -1.14461,6.14639 l -0.0452,0.1905 h -6.82348 -6.823474 l 0.0507,-0.27517 c 1.2097,-6.56123 2.28633,-12.2347 2.38908,-12.58974 0.31605,-1.09201 0.90792,-1.87058 1.68249,-2.21321 0.47043,-0.2081 2.308754,-0.65419 2.978724,-0.72283 l 0.53051,-0.0543 0.084,-0.43319 c 0.0462,-0.23825 0.1387,-0.71228 0.2056,-1.0534 0.0891,-0.45408 0.0959,-0.63002 0.0255,-0.65681 -0.0529,-0.0201 -4.039344,-0.0268 -8.858854,-0.0148 l -8.76274,0.0218 -0.14315,0.67734 c -0.0787,0.37253 -0.16703,0.85017 -0.19622,1.06143 l -0.0531,0.3841 0.53463,0.11014 c 2.65779,0.54754 3.74607,1.49966 3.59284,3.14333 -0.0514,0.55148 -5.3817,29.33993 -5.5651,30.05666 -0.31438,1.22859 -1.00535,2.1121 -1.92566,2.46226 -0.48835,0.18581 -1.80578,0.43823 -2.82393,0.54107 -0.64434,0.0651 -0.58546,-0.0176 -0.78563,1.10299 -0.0749,0.4191 -0.15596,0.82868 -0.18021,0.91017 -0.0418,0.14045 0.41844,0.14817 8.83676,0.14817 h 8.88085 z"
       id="path1" /></g></svg>
